# xmcd
#
# Track frame offsets:
#	150
#	13518
#	25385
#	36800
#	50104
#	62642
#	75782
#	90945
#	103919
#	117432
#	131037
#	142830
#	155215
#	168965
#	183322
#	195529
#	206821
#	219845
#	231512
#	243668
#	256263
#	270593
#	282929
#	296367
#	306964
#
# Disc length: 4259 seconds
#
# Revision: 1
# Processed by: cddbd v1.5.1PL2 Copyright (c) Steve Scherf et al.
# Submitted via: audiograbber 1.83.01
#
DISCID=6710a119
DTITLE=Various Artist - The R&B Years 1947 Disk 4 
DYEAR=1947
DGENRE=Blues
TTITLE0=Dave Bartholomew - She' got great big Eyes
TTITLE1=Jimmie Gordon - Jumpin' at the Club Blue Flame
TTITLE2=Jessie Stone - An Ace in the Hole
TTITLE3=Clyde Bernhardt - Is It any news to You
TTITLE4=Jack McVea - Two Timin' Baby
TTITLE5=Julie Lee - Snatch and Grab
TTITLE6=Louis Jordan - Early in the Morning
TTITLE7=Jo Jo Adams - Drinkin' Blues
TTITLE8=Charles Brown - Changeable Woman Blues
TTITLE9=Lil Green - I Want a Good Man Bad
TTITLE10=Trenier Twins - Hey Sister Lucy
TTITLE11=T-Bone Walker - I Know Your Wig is Gone
TTITLE12=Jump Jackson - Hey Pretty Mama
TTITLE13=Todd Rhodes - Bell Boy Boogie
TTITLE14=Hot Lips Page - Walking in a daze
TTITLE15=Gatemouth Brown - Gatemouth Boogie
TTITLE16=Roy Brown - Special Lesson No 1
TTITLE17=Gene Phillips - Rock Bottom
TTITLE18=Clarence Samuels - Boogie Woogie Blues
TTITLE19=Tom Archia - Fishin' Pole
TTITLE20=Floyd Smith - Floyd's Guitar Blues
TTITLE21=Paul Williams - Hastings Street Bounce
TTITLE22=Roy brown - Good Rockin' Tonight
TTITLE23=King Porter - Bumps Boogie
TTITLE24=Charles brown - Merry Christmas Baby
EXTD=
EXTT0=
EXTT1=
EXTT2=
EXTT3=
EXTT4=
EXTT5=
EXTT6=
EXTT7=
EXTT8=
EXTT9=
EXTT10=
EXTT11=
EXTT12=
EXTT13=
EXTT14=
EXTT15=
EXTT16=
EXTT17=
EXTT18=
EXTT19=
EXTT20=
EXTT21=
EXTT22=
EXTT23=
EXTT24=
PLAYORDER=
